<?xml version="1.0" encoding="UTF-8"?> <svg xmlns="http://www.w3.org/2000/svg" xmlns:xlink="http://www.w3.org/1999/xlink" id="Calque_2" data-name="Calque 2" viewBox="0 0 503.22 89.33"><defs><style> .cls-1 { fill: #333e48; } .cls-1, .cls-2, .cls-3, .cls-4, .cls-5 { stroke-width: 0px; } .cls-2 { fill: url(#Dégradé_sans_nom_5); } .cls-3 { fill: #6eb52c; } .cls-4 { fill: #fff; } .cls-5 { fill: #3b3736; } </style><linearGradient id="Dégradé_sans_nom_5" data-name="Dégradé sans nom 5" x1="709.19" y1="46.66" x2="794.54" y2="46.66" gradientTransform="translate(794.54) rotate(-180) scale(1 -1)" gradientUnits="userSpaceOnUse"><stop offset="0" stop-color="#6eb52d"></stop><stop offset="1" stop-color="#4ea134"></stop></linearGradient></defs><g id="Calque_1-2" data-name="Calque 1"><g><path class="cls-5" d="M139.32,31.68c-.68-2.69-2.02-4.72-4.05-6.07-1.8-1.35-4.27-2.02-7.19-2.02-2.47,0-4.72.67-6.52,2.25-2.02,1.58-3.37,3.37-4.05,5.85h21.81ZM117.07,39.1c.45,2.92,1.57,5.4,3.6,6.97,2.02,1.57,4.49,2.47,7.64,2.47,2.02,0,4.05-.45,5.62-1.35,1.8-.9,2.92-2.02,4.05-3.6h10.12c-1.8,4.27-4.27,7.64-7.64,10.11-3.37,2.47-7.42,3.6-11.91,3.6-2.92,0-5.62-.45-8.32-1.57-2.47-.9-4.72-2.47-6.74-4.72-1.8-1.8-3.37-4.27-4.5-6.74-.9-2.7-1.57-5.17-1.57-8.09,0-2.7.67-5.4,1.57-7.87.9-2.48,2.47-4.72,4.27-6.52,2.02-2.25,4.27-4.05,6.97-5.17,2.47-1.12,5.17-1.8,7.87-1.8,3.6,0,6.74.9,9.89,2.47,2.92,1.57,5.62,3.82,7.64,6.75,1.35,1.57,2.25,3.6,2.92,5.85.68,2.02.9,4.49.9,7.19v2.02h-32.37Z"></path><path class="cls-5" d="M390.99,57.16V18.49h9.22v38.67h-9.22ZM395.71,3.2c3.15,0,5.62,2.47,5.62,5.62,0,3.37-2.47,5.85-5.62,5.85-3.37,0-5.85-2.47-5.85-5.85,0-3.15,2.47-5.62,5.85-5.62Z"></path><path class="cls-5" d="M204.38,35.95c0,3.82,1.12,6.75,3.15,8.99,2.02,2.02,4.72,3.15,8.32,3.15,3.37,0,6.07-1.12,8.31-3.37,2.02-2.25,2.93-5.17,2.93-8.99,0-3.37-.9-6.07-3.15-8.32-2.25-2.25-4.95-3.37-8.09-3.37-3.37,0-6.07,1.12-8.32,3.37-2.02,2.25-3.15,5.17-3.15,8.54ZM194.71,35.95c0-2.7.45-5.39,1.57-7.87,1.12-2.7,2.47-4.95,4.49-6.97,2.03-2.02,4.27-3.59,6.75-4.49,2.7-1.12,5.17-1.8,8.09-1.8,2.7,0,5.39.67,7.87,1.57,2.47.9,4.72,2.47,6.75,4.27,2.24,2.02,3.82,4.27,4.95,6.97,1.12,2.7,1.8,5.4,1.8,8.09,0,3.15-.68,6.07-1.57,8.54-.9,2.47-2.48,4.72-4.5,6.74-2.02,2.25-4.27,3.82-6.75,4.72-2.7,1.12-5.39,1.57-8.54,1.57-2.93,0-5.62-.45-8.09-1.57-2.48-1.13-4.95-2.7-6.97-4.72-1.8-2.25-3.37-4.5-4.27-6.97-1.13-2.47-1.57-5.17-1.57-8.09Z"></path><path class="cls-5" d="M408.28,45.46V3.88h9.44v13.04h6.07v8.32h-6.07v20.23c0,2.25.9,3.37,3.37,3.37h2.7v8.32h-3.6c-6.29,0-11.92-3.6-11.92-11.69Z"></path><path class="cls-5" d="M319.25,15.27c-11.46,0-20.85,9.44-20.85,20.91s9.47,20.91,20.94,20.91c4.27,0,8.72-1.35,11.72-3.6v3.41h8.98v-20.72c0-11.46-9.32-20.91-20.79-20.91ZM319.37,47.87c-6.52,0-11.69-5.17-11.69-11.69s5.17-11.69,11.69-11.69,11.69,5.17,11.69,11.69-5.17,11.69-11.69,11.69Z"></path><path class="cls-5" d="M365.4,15.27c-4.5,0-8.86,1.35-11.86,3.59V0h-8.98v36.17c0,11.46,9.16,20.91,20.85,20.91s20.9-9.44,20.9-20.91-9.44-20.91-20.91-20.91ZM365.34,47.87c-6.52,0-11.92-5.17-11.92-11.69s5.4-11.69,11.92-11.69,11.69,5.17,11.69,11.69-5.17,11.69-11.69,11.69Z"></path><path class="cls-5" d="M172.76,15.27c9.89,0,17.98,6.74,20.23,15.73h-9.67c-1.8-3.82-5.85-6.52-10.57-6.52-6.52,0-11.69,5.17-11.69,11.69s5.17,11.69,11.69,11.69c4.72,0,8.77-2.7,10.57-6.52h9.67c-2.25,8.99-10.34,15.73-20.23,15.73-11.47,0-20.91-9.44-20.91-20.91s9.44-20.91,20.91-20.91Z"></path><path class="cls-5" d="M267.65,57.16v-23.6c0-4.49,3.82-8.32,8.54-8.32h0c4.5,0,8.32,3.82,8.32,8.32v23.6h9.44v-23.38c0-9.67-8.09-17.76-17.76-17.76h0c-3.15,0-6.07.9-8.54,2.25V3.88h-9.22v53.28h9.22Z"></path><path class="cls-5" d="M447.5,15.27c-11.46,0-20.85,9.44-20.85,20.91s9.47,20.91,20.94,20.91c4.27,0,8.72-1.35,11.72-3.6v3.41h8.98v-20.72c0-11.46-9.32-20.91-20.79-20.91ZM447.61,47.87c-6.52,0-11.69-5.17-11.69-11.69s5.17-11.69,11.69-11.69,11.69,5.17,11.69,11.69-5.17,11.69-11.69,11.69Z"></path><path class="cls-5" d="M474.34,45.46V3.88h9.44v13.04h6.07v8.32h-6.07v20.23c0,2.25.9,3.37,3.37,3.37h2.7v8.32h-3.6c-6.29,0-11.92-3.6-11.92-11.69Z"></path><circle class="cls-3" cx="499.07" cy="53.3" r="4.15"></circle><path class="cls-3" d="M250.54,3.62c-1.94,6.3-4.91,13.43-7.48,17.72l-5.26.48c1.8-5.05,3.6-11.97,4.5-17.58l8.24-.62Z"></path></g><g><rect class="cls-4" x="31.99" y="56.51" width="8.64" height="8.64" rx=".82" ry=".82"></rect><rect class="cls-4" x="42.8" y="56.51" width="8.64" height="8.64" rx=".82" ry=".82"></rect><rect class="cls-4" x="31.99" y="67.32" width="8.64" height="8.64" rx=".82" ry=".82"></rect><rect class="cls-4" x="42.8" y="67.32" width="8.64" height="8.64" rx=".82" ry=".82"></rect></g><g><path class="cls-2" d="M42.67,3.99C19.1,3.99,0,23.09,0,46.66c0,4.62.74,9.07,2.1,13.24.07-.08.13-.16.2-.22,7.29-7.37,14.58-14.73,21.87-22.09,5.14-5.2,10.28-10.39,15.43-15.59,2.01-2.03,4.73-2.02,6.67,0,3.34,3.49,6.68,6.98,10.01,10.48.4.42.79.85,1.37,1.48,0-1.99,0-3.64,0-5.29,0-2.66,1.76-4.43,4.4-4.46,2.58-.03,4.4,1.8,4.4,4.46,0,4.55-.01,9.09.03,13.63,0,.47.25,1.04.57,1.39,1.58,1.74,3.24,3.41,4.86,5.12,1.87,1.97,1.88,4.58.05,6.38-1.78,1.75-4.53,1.65-6.38-.28-6.38-6.65-12.74-13.32-19.14-19.96-.54-.56-1.17-1.1-1.87-1.43-1.76-.83-3.56-.41-5.04,1.08-3.83,3.86-7.64,7.73-11.47,11.59-6.35,6.41-12.71,12.82-19.08,19.22-.99,1-2.05,1.93-3.06,2.86-.15-.22-.29-.45-.44-.67,7.32,12.98,21.22,21.74,37.18,21.74,23.57,0,42.67-19.1,42.67-42.67V3.99h-42.67ZM41.37,71.19c0,.44-.36.8-.8.8h-6.82c-.44,0-.8-.36-.8-.8v-6.82c0-.44.36-.8.8-.8h6.82c.44,0,.8.36.8.8v6.82ZM41.37,60.65c0,.44-.36.8-.8.8h-6.82c-.44,0-.8-.36-.8-.8v-6.82c0-.44.36-.8.8-.8h6.82c.44,0,.8.36.8.8v6.82ZM51.92,71.19c0,.44-.36.8-.8.8h-6.82c-.44,0-.8-.36-.8-.8v-6.82c0-.44.36-.8.8-.8h6.82c.44,0,.8.36.8.8v6.82ZM51.92,60.65c0,.44-.36.8-.8.8h-6.82c-.44,0-.8-.36-.8-.8v-6.82c0-.44.36-.8.8-.8h6.82c.44,0,.8.36.8.8v6.82Z"></path><path class="cls-4" d="M8.98,65.41c6.37-6.4,12.72-12.81,19.08-19.22,3.83-3.86,7.64-7.74,11.47-11.59,1.48-1.49,3.29-1.91,5.04-1.08.7.33,1.33.87,1.87,1.43,6.39,6.64,12.75,13.31,19.14,19.96,1.85,1.93,4.59,2.03,6.38.28,1.84-1.8,1.82-4.42-.05-6.38-1.62-1.71-3.27-3.38-4.86-5.12-.32-.35-.57-.92-.57-1.39-.04-4.54-.02-9.09-.03-13.63,0-2.65-1.82-4.48-4.4-4.46-2.64.03-4.4,1.8-4.4,4.46,0,1.65,0,3.3,0,5.29-.58-.62-.97-1.06-1.37-1.48-3.34-3.49-6.68-6.99-10.01-10.48-1.94-2.03-4.65-2.03-6.67,0-5.15,5.19-10.29,10.39-15.43,15.59-7.29,7.36-14.58,14.73-21.87,22.09-.07.07-.13.15-.2.22.88,2.69,2.02,5.26,3.38,7.69.15.22.29.45.44.67,1-.93,2.06-1.86,3.06-2.86Z"></path><rect class="cls-4" x="32.94" y="53.02" width="8.43" height="8.43" rx=".8" ry=".8"></rect><rect class="cls-4" x="43.49" y="53.02" width="8.43" height="8.43" rx=".8" ry=".8"></rect><rect class="cls-4" x="32.94" y="63.57" width="8.43" height="8.43" rx=".8" ry=".8"></rect><rect class="cls-4" x="43.49" y="63.57" width="8.43" height="8.43" rx=".8" ry=".8"></rect></g><g><path class="cls-1" d="M109.38,87.24v-14.98h1.85v13.22h6.95v1.76h-8.8Z"></path><path class="cls-1" d="M117.66,76.94l.11-.86c.29.02.51-.03.66-.17s.24-.31.28-.54.05-.48.02-.76h-1.07v-2.35h2.04v2.66c0,.73-.18,1.28-.54,1.64-.36.37-.86.49-1.5.37Z"></path><path class="cls-1" d="M126.01,87.55c-1.1,0-2.06-.24-2.89-.73-.82-.49-1.46-1.17-1.92-2.05s-.69-1.9-.69-3.07.23-2.29.68-3.19c.45-.9,1.08-1.59,1.89-2.08.81-.49,1.76-.73,2.84-.73s2.09.26,2.89.78c.79.52,1.39,1.26,1.79,2.23.4.96.57,2.11.51,3.44h-1.87v-.67c-.02-1.38-.3-2.41-.84-3.09-.54-.68-1.35-1.02-2.41-1.02-1.14,0-2.01.37-2.61,1.1-.6.73-.89,1.79-.89,3.16s.3,2.35.89,3.08c.6.73,1.45,1.09,2.55,1.09.74,0,1.39-.17,1.93-.51s.98-.83,1.29-1.47l1.78.61c-.44.99-1.09,1.76-1.97,2.3-.88.54-1.86.82-2.95.82ZM121.86,82.14v-1.49h8.3v1.49h-8.3Z"></path><path class="cls-1" d="M131.87,87.24l4.3-5.68-4.2-5.55h2.2l3.08,4.12,3.05-4.12h2.21l-4.2,5.55,4.31,5.68h-2.22l-3.14-4.24-3.16,4.24h-2.22Z"></path><path class="cls-1" d="M148.68,87.55c-1.14,0-2.1-.25-2.9-.76s-1.4-1.21-1.81-2.11c-.42-.89-.63-1.91-.64-3.06.01-1.17.23-2.2.66-3.09.43-.89,1.04-1.59,1.84-2.08.8-.5,1.76-.75,2.88-.75,1.19,0,2.21.29,3.06.87.86.58,1.43,1.38,1.72,2.39l-1.83.55c-.24-.65-.62-1.16-1.15-1.52-.53-.36-1.14-.54-1.83-.54-.77,0-1.4.18-1.9.54-.5.36-.87.85-1.11,1.48-.24.63-.37,1.35-.37,2.16.01,1.25.3,2.26.87,3.02.56.77,1.41,1.15,2.52,1.15.73,0,1.35-.17,1.83-.5.48-.34.85-.82,1.1-1.46l1.87.49c-.39,1.05-.99,1.85-1.82,2.4-.83.55-1.82.83-2.98.83Z"></path><path class="cls-1" d="M160.28,87.55c-1.1,0-2.06-.24-2.89-.73-.82-.49-1.46-1.17-1.92-2.05s-.69-1.9-.69-3.07.23-2.29.68-3.19c.45-.9,1.08-1.59,1.89-2.08.81-.49,1.76-.73,2.84-.73s2.09.26,2.89.78c.79.52,1.39,1.26,1.79,2.23.4.96.57,2.11.51,3.44h-1.87v-.67c-.02-1.38-.3-2.41-.84-3.09-.54-.68-1.35-1.02-2.41-1.02-1.14,0-2.01.37-2.61,1.1-.6.73-.89,1.79-.89,3.16s.3,2.35.89,3.08c.6.73,1.45,1.09,2.55,1.09.74,0,1.39-.17,1.93-.51s.98-.83,1.29-1.47l1.78.61c-.44.99-1.09,1.76-1.97,2.3-.88.54-1.86.82-2.95.82ZM156.13,82.14v-1.49h8.3v1.49h-8.3Z"></path><path class="cls-1" d="M168.01,87.24v-15.29h1.85v15.29h-1.85Z"></path><path class="cls-1" d="M173.29,87.24v-15.29h1.85v15.29h-1.85Z"></path><path class="cls-1" d="M183.23,87.55c-1.1,0-2.06-.24-2.89-.73-.82-.49-1.46-1.17-1.92-2.05s-.69-1.9-.69-3.07.23-2.29.68-3.19c.45-.9,1.08-1.59,1.89-2.08.81-.49,1.76-.73,2.84-.73s2.09.26,2.89.78c.79.52,1.39,1.26,1.79,2.23.4.96.57,2.11.51,3.44h-1.87v-.67c-.02-1.38-.3-2.41-.84-3.09-.54-.68-1.35-1.02-2.41-1.02-1.14,0-2.01.37-2.61,1.1-.6.73-.89,1.79-.89,3.16s.3,2.35.89,3.08c.6.73,1.45,1.09,2.55,1.09.74,0,1.39-.17,1.93-.51s.98-.83,1.29-1.47l1.78.61c-.44.99-1.09,1.76-1.97,2.3-.88.54-1.86.82-2.95.82ZM179.08,82.14v-1.49h8.3v1.49h-8.3Z"></path><path class="cls-1" d="M190.43,87.24v-11.23h1.66v3.01h.21v8.23h-1.87ZM198.44,87.24v-5.63c0-.53-.05-1.05-.14-1.54-.09-.49-.26-.93-.49-1.33s-.54-.7-.94-.93c-.39-.23-.89-.34-1.48-.34-.46,0-.89.08-1.26.23-.38.16-.7.39-.97.71-.27.32-.48.72-.63,1.2-.15.48-.22,1.05-.22,1.7l-1.22-.37c0-1.09.2-2.02.59-2.8.39-.78.94-1.38,1.65-1.8.71-.42,1.55-.63,2.51-.63.73,0,1.35.11,1.86.34.51.23.94.53,1.28.91.34.38.61.8.8,1.27.19.47.33.94.41,1.42.08.48.12.94.12,1.37v6.21h-1.87Z"></path><path class="cls-1" d="M207.74,87.55c-1.14,0-2.1-.25-2.9-.76s-1.4-1.21-1.81-2.11c-.42-.89-.63-1.91-.64-3.06.01-1.17.23-2.2.66-3.09.43-.89,1.04-1.59,1.84-2.08.8-.5,1.76-.75,2.88-.75,1.19,0,2.21.29,3.06.87.86.58,1.43,1.38,1.72,2.39l-1.83.55c-.24-.65-.62-1.16-1.15-1.52-.53-.36-1.14-.54-1.83-.54-.77,0-1.4.18-1.9.54-.5.36-.87.85-1.11,1.48-.24.63-.37,1.35-.37,2.16.01,1.25.3,2.26.87,3.02.56.77,1.41,1.15,2.52,1.15.73,0,1.35-.17,1.83-.5.48-.34.85-.82,1.1-1.46l1.87.49c-.39,1.05-.99,1.85-1.82,2.4-.83.55-1.82.83-2.98.83Z"></path><path class="cls-1" d="M219.34,87.55c-1.1,0-2.06-.24-2.89-.73-.82-.49-1.46-1.17-1.92-2.05s-.69-1.9-.69-3.07.23-2.29.68-3.19c.45-.9,1.08-1.59,1.89-2.08.81-.49,1.76-.73,2.84-.73s2.09.26,2.89.78c.79.52,1.39,1.26,1.79,2.23.4.96.57,2.11.51,3.44h-1.87v-.67c-.02-1.38-.3-2.41-.84-3.09-.54-.68-1.35-1.02-2.41-1.02-1.14,0-2.01.37-2.61,1.1-.6.73-.89,1.79-.89,3.16s.3,2.35.89,3.08c.6.73,1.45,1.09,2.55,1.09.74,0,1.39-.17,1.93-.51s.98-.83,1.29-1.47l1.78.61c-.44.99-1.09,1.76-1.97,2.3-.88.54-1.86.82-2.95.82ZM215.19,82.14v-1.49h8.3v1.49h-8.3Z"></path><path class="cls-1" d="M234.31,87.55c-.84,0-1.54-.15-2.11-.46-.57-.31-.99-.72-1.28-1.22-.29-.51-.43-1.06-.43-1.66s.11-1.1.34-1.53c.23-.43.54-.79.95-1.08s.9-.51,1.47-.68c.53-.15,1.13-.27,1.79-.38s1.33-.21,2.01-.3c.68-.09,1.31-.18,1.9-.26l-.67.38c.02-1-.18-1.74-.6-2.21-.42-.48-1.14-.72-2.17-.72-.68,0-1.27.15-1.78.46s-.87.81-1.08,1.5l-1.76-.53c.27-.98.79-1.76,1.57-2.32.78-.56,1.8-.84,3.07-.84,1.02,0,1.89.18,2.63.55s1.26.91,1.58,1.65c.16.35.26.72.3,1.13.04.41.06.83.06,1.27v6.95h-1.64v-2.69l.38.25c-.42.91-1.01,1.59-1.77,2.06s-1.68.7-2.77.7ZM234.6,86c.67,0,1.24-.12,1.73-.36s.88-.55,1.18-.95c.3-.39.49-.82.58-1.28.1-.35.16-.73.17-1.16.01-.43.02-.75.02-.98l.64.28c-.6.08-1.2.16-1.78.24s-1.13.16-1.65.24-.99.19-1.4.31c-.31.1-.59.22-.86.37-.27.15-.48.35-.65.59-.16.24-.24.54-.24.89,0,.3.08.6.23.87.16.28.4.5.73.68.33.17.76.26,1.29.26Z"></path><path class="cls-1" d="M247.19,87.53c-.72,0-1.34-.11-1.86-.34-.52-.23-.94-.53-1.28-.92-.34-.38-.61-.8-.8-1.27-.19-.46-.33-.94-.41-1.42-.08-.49-.12-.94-.12-1.36v-6.21h1.87v5.63c0,.53.05,1.04.15,1.53.1.49.26.94.49,1.33.23.39.54.71.94.94.39.23.88.34,1.47.34.46,0,.89-.08,1.27-.24.38-.16.71-.4.98-.71s.48-.72.62-1.2.22-1.05.22-1.7l1.22.37c0,1.08-.2,2.01-.59,2.8-.39.78-.94,1.38-1.65,1.8-.71.42-1.55.63-2.51.63ZM250.93,87.24v-3.01h-.21v-8.23h1.86v11.23h-1.65Z"></path><path class="cls-1" d="M264.11,87.54c-1.34,0-2.44-.29-3.29-.88-.86-.59-1.38-1.41-1.58-2.46l1.89-.3c.15.61.5,1.09,1.05,1.45.55.36,1.23.54,2.04.54s1.37-.16,1.81-.48c.44-.32.66-.75.66-1.3,0-.32-.07-.58-.22-.77-.14-.2-.45-.38-.9-.56-.45-.17-1.14-.38-2.05-.62-.99-.26-1.77-.54-2.34-.82s-.97-.61-1.22-.99c-.24-.37-.36-.83-.36-1.36,0-.66.18-1.24.54-1.73.36-.5.86-.88,1.51-1.15s1.4-.41,2.26-.41,1.62.13,2.29.41c.67.27,1.21.65,1.63,1.15.41.5.66,1.07.73,1.73l-1.89.34c-.09-.6-.38-1.08-.87-1.42-.49-.35-1.12-.53-1.89-.55-.73-.03-1.32.1-1.77.38s-.68.67-.68,1.15c0,.27.08.5.25.7s.49.38.95.55c.46.17,1.13.37,2.01.59.99.25,1.77.52,2.35.82.57.29.98.64,1.22,1.04.24.4.36.89.36,1.47,0,1.08-.4,1.93-1.2,2.55-.8.62-1.9.93-3.3.93Z"></path><path class="cls-1" d="M275.87,87.55c-1.1,0-2.06-.24-2.89-.73-.82-.49-1.46-1.17-1.92-2.05-.46-.88-.69-1.9-.69-3.07s.23-2.29.68-3.19c.45-.9,1.08-1.59,1.89-2.08.81-.49,1.76-.73,2.84-.73s2.09.26,2.89.78c.79.52,1.39,1.26,1.79,2.23.4.96.57,2.11.51,3.44h-1.87v-.67c-.02-1.38-.3-2.41-.84-3.09-.54-.68-1.34-1.02-2.41-1.02-1.14,0-2.01.37-2.61,1.1-.6.73-.89,1.79-.89,3.16s.3,2.35.89,3.08c.6.73,1.45,1.09,2.55,1.09.74,0,1.39-.17,1.93-.51s.98-.83,1.29-1.47l1.78.61c-.44.99-1.09,1.76-1.97,2.3-.88.54-1.86.82-2.95.82ZM271.72,82.14v-1.49h8.3v1.49h-8.3Z"></path><path class="cls-1" d="M283.39,87.24v-11.23h1.65v2.71l-.27-.35c.13-.35.3-.67.51-.96.21-.29.45-.53.71-.72.29-.24.62-.42.99-.54.37-.12.74-.2,1.12-.22s.74,0,1.07.08v1.74c-.39-.1-.82-.13-1.28-.08-.46.05-.89.22-1.29.51-.36.26-.64.57-.84.94s-.33.76-.41,1.19c-.08.43-.11.86-.11,1.31v5.64h-1.86Z"></path><path class="cls-1" d="M294.3,87.24l-4.08-11.23h1.87l3.15,8.87,3.14-8.87h1.88l-4.08,11.23h-1.89Z"></path><path class="cls-1" d="M302.46,74.02v-1.91h1.85v1.91h-1.85ZM302.46,87.24v-11.23h1.85v11.23h-1.85Z"></path><path class="cls-1" d="M312.26,87.55c-1.14,0-2.1-.25-2.9-.76-.79-.51-1.4-1.21-1.82-2.11s-.63-1.91-.64-3.06c.01-1.17.23-2.2.66-3.09.43-.89,1.04-1.59,1.84-2.08.8-.5,1.76-.75,2.88-.75,1.19,0,2.21.29,3.06.87.86.58,1.43,1.38,1.72,2.39l-1.83.55c-.24-.65-.62-1.16-1.15-1.52-.53-.36-1.14-.54-1.83-.54-.77,0-1.4.18-1.9.54-.5.36-.87.85-1.11,1.48-.24.63-.37,1.35-.37,2.16.01,1.25.3,2.26.87,3.02.57.77,1.41,1.15,2.52,1.15.73,0,1.34-.17,1.83-.5.49-.34.85-.82,1.1-1.46l1.87.49c-.39,1.05-1,1.85-1.82,2.4-.83.55-1.82.83-2.98.83Z"></path><path class="cls-1" d="M323.86,87.55c-1.1,0-2.06-.24-2.89-.73-.82-.49-1.46-1.17-1.92-2.05-.46-.88-.69-1.9-.69-3.07s.23-2.29.68-3.19c.45-.9,1.08-1.59,1.89-2.08.81-.49,1.76-.73,2.84-.73s2.09.26,2.89.78c.79.52,1.39,1.26,1.79,2.23.4.96.57,2.11.51,3.44h-1.87v-.67c-.02-1.38-.3-2.41-.84-3.09-.54-.68-1.34-1.02-2.41-1.02-1.14,0-2.01.37-2.61,1.1-.6.73-.89,1.79-.89,3.16s.3,2.35.89,3.08c.6.73,1.45,1.09,2.55,1.09.74,0,1.39-.17,1.93-.51.55-.34.98-.83,1.29-1.47l1.78.61c-.44.99-1.09,1.76-1.97,2.3-.88.54-1.86.82-2.95.82ZM319.71,82.14v-1.49h8.3v1.49h-8.3Z"></path><path class="cls-1" d="M340.05,87.55c-1.05,0-1.94-.26-2.69-.79s-1.33-1.23-1.73-2.13c-.41-.89-.61-1.9-.61-3.03s.2-2.13.61-3.03c.41-.89.98-1.6,1.73-2.12.75-.52,1.64-.77,2.68-.77s1.95.26,2.67.77c.72.51,1.27,1.22,1.64,2.11s.56,1.91.56,3.04-.19,2.12-.56,3.02c-.37.9-.92,1.61-1.64,2.13-.72.52-1.61.79-2.66.79ZM340.28,85.86c.75,0,1.38-.18,1.86-.55.49-.36.84-.87,1.08-1.51.23-.64.35-1.37.35-2.19s-.12-1.57-.35-2.2c-.23-.63-.59-1.13-1.07-1.49-.48-.36-1.09-.54-1.82-.54s-1.39.19-1.89.56-.86.88-1.1,1.52-.36,1.35-.36,2.14.12,1.52.36,2.16c.24.64.61,1.15,1.1,1.52.49.37,1.1.56,1.84.56ZM343.57,87.24v-8.27h-.21v-6.71h1.86v14.98h-1.65Z"></path><path class="cls-1" d="M353.1,87.55c-1.1,0-2.06-.24-2.89-.73-.82-.49-1.46-1.17-1.92-2.05-.46-.88-.69-1.9-.69-3.07s.23-2.29.68-3.19c.45-.9,1.08-1.59,1.89-2.08.81-.49,1.76-.73,2.84-.73s2.09.26,2.89.78c.79.52,1.39,1.26,1.79,2.23.4.96.57,2.11.51,3.44h-1.87v-.67c-.02-1.38-.3-2.41-.84-3.09-.54-.68-1.34-1.02-2.41-1.02-1.14,0-2.01.37-2.61,1.1-.6.73-.89,1.79-.89,3.16s.3,2.35.89,3.08c.6.73,1.45,1.09,2.55,1.09.74,0,1.39-.17,1.93-.51.55-.34.98-.83,1.29-1.47l1.78.61c-.44.99-1.09,1.76-1.97,2.3-.88.54-1.86.82-2.95.82ZM348.95,82.14v-1.49h8.3v1.49h-8.3Z"></path><path class="cls-1" d="M367.92,87.24l-4.08-11.23h1.87l3.15,8.87,3.14-8.87h1.88l-4.08,11.23h-1.89Z"></path><path class="cls-1" d="M380.24,87.55c-1.12,0-2.08-.25-2.89-.76-.81-.51-1.43-1.21-1.87-2.1s-.66-1.92-.66-3.08.22-2.21.67-3.1c.44-.89,1.07-1.58,1.88-2.08.81-.5,1.76-.74,2.86-.74s2.09.25,2.9.75,1.43,1.2,1.87,2.09c.43.89.65,1.92.65,3.07s-.22,2.2-.66,3.09c-.44.89-1.06,1.59-1.87,2.09-.81.5-1.77.75-2.89.75ZM380.24,85.79c1.17,0,2.03-.39,2.6-1.17s.85-1.78.85-3.02-.29-2.28-.86-3.03c-.58-.75-1.44-1.13-2.59-1.13-.78,0-1.43.18-1.93.53s-.88.84-1.13,1.47c-.25.62-.37,1.35-.37,2.16,0,1.26.29,2.27.87,3.04.58.76,1.44,1.14,2.57,1.14Z"></path><path class="cls-1" d="M386.8,77.54v-1.53h7.52v1.53h-7.52ZM394.32,87.24c-.67.13-1.32.19-1.97.16-.65-.02-1.23-.16-1.73-.4-.51-.24-.89-.61-1.15-1.12-.22-.44-.34-.89-.36-1.35-.02-.45-.03-.97-.03-1.54v-10.11h1.85v10.03c0,.46,0,.85.02,1.17.01.33.08.61.21.84.25.44.65.7,1.19.78.54.08,1.2.05,1.97-.06v1.59Z"></path><path class="cls-1" d="M396.71,87.24v-11.23h1.65v2.71l-.27-.35c.13-.35.3-.67.51-.96.21-.29.45-.53.71-.72.29-.24.62-.42.99-.54.37-.12.74-.2,1.12-.22.38-.02.74,0,1.07.08v1.74c-.39-.1-.82-.13-1.28-.08-.46.05-.89.22-1.29.51-.36.26-.64.57-.84.94s-.33.76-.41,1.19c-.08.43-.11.86-.11,1.31v5.64h-1.86Z"></path><path class="cls-1" d="M409.24,87.55c-1.1,0-2.06-.24-2.89-.73-.82-.49-1.46-1.17-1.92-2.05-.46-.88-.69-1.9-.69-3.07s.23-2.29.68-3.19c.45-.9,1.08-1.59,1.89-2.08.81-.49,1.76-.73,2.84-.73s2.09.26,2.89.78c.79.52,1.39,1.26,1.79,2.23.4.96.57,2.11.51,3.44h-1.87v-.67c-.02-1.38-.3-2.41-.84-3.09-.54-.68-1.34-1.02-2.41-1.02-1.14,0-2.01.37-2.61,1.1-.6.73-.89,1.79-.89,3.16s.3,2.35.89,3.08c.6.73,1.45,1.09,2.55,1.09.74,0,1.39-.17,1.93-.51.55-.34.98-.83,1.29-1.47l1.78.61c-.44.99-1.09,1.76-1.97,2.3-.88.54-1.86.82-2.95.82ZM405.09,82.14v-1.49h8.3v1.49h-8.3Z"></path><path class="cls-1" d="M421.01,87.24v-14.98h1.66v8.27h.21v6.71h-1.87ZM429.02,87.24v-5.63c0-.53-.05-1.05-.14-1.54-.09-.49-.26-.93-.49-1.33s-.54-.7-.94-.93c-.39-.23-.89-.34-1.48-.34-.46,0-.89.08-1.26.23-.38.16-.7.39-.97.71-.27.32-.48.72-.63,1.2-.15.48-.22,1.05-.22,1.7l-1.22-.37c0-1.09.2-2.02.59-2.8s.94-1.38,1.65-1.8c.71-.42,1.55-.63,2.51-.63.73,0,1.35.11,1.86.34.51.23.94.53,1.28.91s.61.8.8,1.27.33.94.41,1.42c.08.48.12.94.12,1.37v6.21h-1.87Z"></path><path class="cls-1" d="M436.89,87.55c-.84,0-1.54-.15-2.11-.46-.57-.31-.99-.72-1.28-1.22-.29-.51-.43-1.06-.43-1.66s.11-1.1.34-1.53c.23-.43.54-.79.95-1.08.41-.29.9-.51,1.47-.68.53-.15,1.13-.27,1.79-.38s1.33-.21,2.01-.3c.68-.09,1.31-.18,1.9-.26l-.67.38c.02-1-.18-1.74-.6-2.21-.42-.48-1.14-.72-2.17-.72-.68,0-1.27.15-1.78.46s-.87.81-1.08,1.5l-1.76-.53c.27-.98.79-1.76,1.57-2.32.78-.56,1.8-.84,3.07-.84,1.02,0,1.89.18,2.63.55s1.26.91,1.58,1.65c.16.35.26.72.3,1.13.04.41.06.83.06,1.27v6.95h-1.64v-2.69l.38.25c-.42.91-1.01,1.59-1.77,2.06-.76.46-1.68.7-2.77.7ZM437.18,86c.67,0,1.24-.12,1.73-.36.49-.24.88-.55,1.18-.95.3-.39.49-.82.58-1.28.1-.35.16-.73.17-1.16.01-.43.02-.75.02-.98l.64.28c-.6.08-1.2.16-1.78.24s-1.13.16-1.65.24c-.52.09-.99.19-1.4.31-.3.1-.59.22-.86.37-.27.15-.48.35-.64.59s-.24.54-.24.89c0,.3.08.6.23.87.16.28.4.5.73.68.33.17.76.26,1.29.26Z"></path><path class="cls-1" d="M445.5,87.24v-14.98h1.86v6.71h-.21v8.27h-1.65ZM450.66,87.55c-1.05,0-1.94-.26-2.66-.79-.72-.52-1.27-1.23-1.64-2.13-.37-.9-.56-1.9-.56-3.02s.19-2.14.56-3.04c.37-.89.92-1.6,1.64-2.11.72-.51,1.61-.77,2.67-.77s1.94.26,2.69.77c.75.52,1.33,1.22,1.73,2.12.4.89.6,1.9.6,3.03s-.2,2.13-.6,3.03c-.4.89-.98,1.6-1.73,2.13-.75.52-1.65.79-2.7.79ZM450.44,85.86c.74,0,1.36-.19,1.84-.56.49-.38.85-.88,1.09-1.52.24-.64.36-1.36.36-2.16s-.12-1.5-.36-2.14-.61-1.14-1.1-1.52c-.5-.37-1.12-.56-1.89-.56s-1.33.18-1.81.54c-.48.36-.84.85-1.07,1.49-.24.63-.35,1.37-.35,2.2s.12,1.55.35,2.19c.23.64.59,1.14,1.08,1.51.48.36,1.11.55,1.86.55Z"></path><path class="cls-1" d="M458.3,74.02v-1.91h1.85v1.91h-1.85ZM458.3,87.24v-11.23h1.85v11.23h-1.85Z"></path><path class="cls-1" d="M462.12,77.54v-1.53h7.52v1.53h-7.52ZM469.64,87.24c-.67.13-1.32.19-1.97.16-.65-.02-1.23-.16-1.73-.4-.51-.24-.89-.61-1.15-1.12-.22-.44-.34-.89-.36-1.35-.02-.45-.03-.97-.03-1.54v-10.11h1.85v10.03c0,.46,0,.85.02,1.17.01.33.08.61.21.84.25.44.65.7,1.19.78.54.08,1.2.05,1.97-.06v1.59Z"></path><path class="cls-1" d="M475.23,87.55c-.84,0-1.54-.15-2.11-.46-.57-.31-.99-.72-1.28-1.22-.29-.51-.43-1.06-.43-1.66s.11-1.1.34-1.53c.23-.43.54-.79.95-1.08.41-.29.9-.51,1.47-.68.53-.15,1.13-.27,1.79-.38s1.33-.21,2.01-.3c.68-.09,1.31-.18,1.9-.26l-.67.38c.02-1-.18-1.74-.6-2.21-.42-.48-1.14-.72-2.17-.72-.68,0-1.27.15-1.78.46s-.87.81-1.08,1.5l-1.76-.53c.27-.98.79-1.76,1.57-2.32.78-.56,1.8-.84,3.07-.84,1.02,0,1.89.18,2.63.55s1.26.91,1.58,1.65c.16.35.26.72.3,1.13.04.41.06.83.06,1.27v6.95h-1.64v-2.69l.38.25c-.42.91-1.01,1.59-1.77,2.06-.76.46-1.68.7-2.77.7ZM475.51,86c.67,0,1.24-.12,1.73-.36.49-.24.88-.55,1.18-.95.3-.39.49-.82.58-1.28.1-.35.16-.73.17-1.16.01-.43.02-.75.02-.98l.64.28c-.6.08-1.2.16-1.78.24s-1.13.16-1.65.24c-.52.09-.99.19-1.4.31-.3.1-.59.22-.86.37-.27.15-.48.35-.64.59s-.24.54-.24.89c0,.3.08.6.23.87.16.28.4.5.73.68.33.17.76.26,1.29.26Z"></path><path class="cls-1" d="M482.59,77.54v-1.53h7.52v1.53h-7.52ZM490.11,87.24c-.67.13-1.32.19-1.97.16-.65-.02-1.23-.16-1.73-.4-.51-.24-.89-.61-1.15-1.12-.22-.44-.34-.89-.36-1.35-.02-.45-.03-.97-.03-1.54v-10.11h1.85v10.03c0,.46,0,.85.02,1.17.01.33.08.61.21.84.25.44.65.7,1.19.78.54.08,1.2.05,1.97-.06v1.59Z"></path></g></g></svg> 